<svg xmlns="http://www.w3.org/2000/svg" version="1.1" xmlns:xlink="http://www.w3.org/1999/xlink" xmlns:svgjs="http://svgjs.dev/svgjs" width="1500" height="1500" viewBox="0 0 1500 1500"><rect width="1500" height="1500" fill="#ffffff"></rect><g transform="matrix(0.6666666666666666,0,0,0.6666666666666666,249.39393939393938,603.4679441889961)"><svg viewBox="0 0 396 116" data-background-color="#ffffff" preserveAspectRatio="xMidYMid meet" height="439" width="1500" xmlns="http://www.w3.org/2000/svg" xmlns:xlink="http://www.w3.org/1999/xlink"><g id="tight-bounds" transform="matrix(1,0,0,1,0.2400000000000091,0.07876471780110705)"><svg viewBox="0 0 395.52 115.84247056439777" height="115.84247056439777" width="395.52"><g><svg viewBox="0 0 587.6246479337743 172.10732954384827" height="115.84247056439777" width="395.52"><g transform="matrix(1,0,0,1,0,23.786179408737354)"><svg viewBox="0 0 395.52 124.53497072637356" height="124.53497072637356" width="395.52"><g id="textblocktransform"><svg viewBox="0 0 395.52 124.53497072637356" height="124.53497072637356" width="395.52" id="textblock"><g><svg viewBox="0 0 395.52 84.70712139279752" height="84.70712139279752" width="395.52"><g transform="matrix(1,0,0,1,0,0)"><svg width="395.52" viewBox="0.25 -35.2 209.63 44.900000000000006" height="84.70712139279752" data-palette-color="#8dbdff"><path d="M8.95-23L9.1-22.9 8.75-10.05 9-0.95Q9 2.95 7.43 5.33 5.85 7.7 2.05 9.7L2.05 9.7 0.55 7.9 0.55 7.45Q3.2 5.9 4.23 4.1 5.25 2.3 5.25-0.75L5.25-0.75 5.35-9.7 5.15-20.2 0.55-20.2 0.25-20.55 0.5-22.85 5.2-22.85 8.95-23ZM6.4-33.15Q7.4-33.15 8-32.55 8.6-31.95 8.6-30.9L8.6-30.9Q8.6-29.8 7.98-29.15 7.35-28.5 6.25-28.5L6.25-28.5Q5.2-28.5 4.63-29.1 4.05-29.7 4.05-30.8L4.05-30.8Q4.05-31.85 4.67-32.5 5.3-33.15 6.4-33.15L6.4-33.15ZM33.4-11.65L19.05-11.6 19.05-11.5Q19.05-7.3 20.95-5.05 22.85-2.8 26.35-2.8L26.35-2.8Q28.1-2.8 29.85-3.38 31.6-3.95 33.05-5L33.05-5 33.45-4.7 32.85-1.3Q29.35 0.4 25.85 0.4L25.85 0.4Q20.95 0.4 18.15-2.73 15.35-5.85 15.35-11.3L15.35-11.3Q15.35-16.8 18.15-20.05 20.95-23.3 25.7-23.3L25.7-23.3Q29.7-23.3 31.9-21.03 34.1-18.75 34.1-14.7L34.1-14.7Q34.1-13.35 33.9-12.15L33.9-12.15 33.4-11.65ZM25.7-20.5Q23.2-20.5 21.52-18.88 19.85-17.25 19.3-14.3L19.3-14.3 30.35-14.5 30.45-15.2Q30.45-17.75 29.22-19.13 28-20.5 25.7-20.5L25.7-20.5ZM49.9-35.2Q51.7-35.2 53.8-34.75L53.8-34.75 53.5-31.65 53.2-31.4Q51.4-32.3 49.55-32.3L49.55-32.3Q47.59-32.3 46.55-31.08 45.5-29.85 45.45-27.45L45.45-27.45 45.4-22.85 51.4-22.85 51.55-22.55 51.3-20.2 45.34-20.2 45.25-10.05 45.5 0 41.55 0 41.84-9.75 41.75-20.2 38.3-20.2 38.09-20.5 38.34-22.85 41.75-22.85 41.7-26.85Q41.65-30.9 43.8-33.05 45.95-35.2 49.9-35.2L49.9-35.2ZM65.04-35.2Q66.84-35.2 68.94-34.75L68.94-34.75 68.64-31.65 68.34-31.4Q66.54-32.3 64.69-32.3L64.69-32.3Q62.74-32.3 61.69-31.08 60.64-29.85 60.59-27.45L60.59-27.45 60.54-22.85 66.54-22.85 66.69-22.55 66.44-20.2 60.49-20.2 60.39-10.05 60.64 0 56.69 0 56.99-9.75 56.89-20.2 53.44-20.2 53.24-20.5 53.49-22.85 56.89-22.85 56.84-26.85Q56.79-30.9 58.94-33.05 61.09-35.2 65.04-35.2L65.04-35.2ZM74.79-35.1L74.49-10.05 74.74 0 70.79 0 71.09-9.75 70.84-34.75 74.79-35.1ZM88.39-22.9L79.39-12.4Q82.84-7.75 88.99-0.7L88.99-0.7 88.99-0.25Q88.04 0.05 86.92 0.23 85.79 0.4 85.44 0.45L85.44 0.45 84.94 0.25Q79.29-6.45 75.44-12.05L75.44-12.05 75.44-12.4 82.59-20.85 83.89-22.9 88.39-22.9ZM99.94-23.3Q103.19-23.3 105.06-21.7 106.94-20.1 106.94-17.3L106.94-17.3Q106.94-16.45 106.64-11.15L106.64-11.15Q106.34-5.85 106.34-4.95L106.34-4.95Q106.34-3.85 106.69-3.43 107.04-3 107.89-3L107.89-3Q108.64-3 109.59-3.3L109.59-3.3 109.99-2.95 109.59-0.7Q108.14 0.15 106.74 0.3L106.74 0.3Q105.19 0.15 104.26-0.8 103.34-1.75 103.29-3.4L103.29-3.4 102.94-3.4Q100.24-0.65 97.59 0.35L97.59 0.35Q94.24 0.35 92.36-1.33 90.49-3 90.49-5.9L90.49-5.9Q90.49-8.1 91.66-9.4 92.84-10.7 95.14-11.25L95.14-11.25 103.24-13.15 103.29-16.4Q103.29-18.35 102.26-19.4 101.24-20.45 99.34-20.45L99.34-20.45Q97.64-20.45 95.94-19.65 94.24-18.85 92.29-17.15L92.29-17.15 91.89-17.35 91.39-20.2Q95.54-23.3 99.94-23.3L99.94-23.3ZM103.19-10.6L95.94-8.85Q94.94-8.55 94.49-8.03 94.04-7.5 94.04-6.45L94.04-6.45Q94.04-4.8 94.96-3.88 95.89-2.95 97.44-2.95L97.44-2.95Q100.19-2.95 103.04-6.5L103.04-6.5 103.19-10.6ZM125.49-22.95Q126.09-22.95 126.79-22.85L126.79-22.85 126.79-19 126.34-18.85Q125.49-19.1 124.49-19.1L124.49-19.1Q122.84-19.1 121.46-17.78 120.09-16.45 118.74-13.55L118.74-13.55 118.69-10.05 118.94 0 114.99 0 115.24-9.7 115.04-22.65 118.79-23 118.74-18.3 119.04-18.3Q120.44-20.8 122.14-21.88 123.84-22.95 125.49-22.95L125.49-22.95ZM138.18-23.3Q141.43-23.3 143.31-21.7 145.18-20.1 145.18-17.3L145.18-17.3Q145.18-16.45 144.88-11.15L144.88-11.15Q144.58-5.85 144.58-4.95L144.58-4.95Q144.58-3.85 144.93-3.43 145.28-3 146.13-3L146.13-3Q146.88-3 147.83-3.3L147.83-3.3 148.23-2.95 147.83-0.7Q146.38 0.15 144.98 0.3L144.98 0.3Q143.43 0.15 142.51-0.8 141.58-1.75 141.53-3.4L141.53-3.4 141.18-3.4Q138.48-0.65 135.83 0.35L135.83 0.35Q132.48 0.35 130.61-1.33 128.73-3 128.73-5.9L128.73-5.9Q128.73-8.1 129.91-9.4 131.08-10.7 133.38-11.25L133.38-11.25 141.48-13.15 141.53-16.4Q141.53-18.35 140.51-19.4 139.48-20.45 137.58-20.45L137.58-20.45Q135.88-20.45 134.18-19.65 132.48-18.85 130.53-17.15L130.53-17.15 130.13-17.35 129.63-20.2Q133.78-23.3 138.18-23.3L138.18-23.3ZM141.43-10.6L134.18-8.85Q133.18-8.55 132.73-8.03 132.28-7.5 132.28-6.45L132.28-6.45Q132.28-4.8 133.21-3.88 134.13-2.95 135.68-2.95L135.68-2.95Q138.43-2.95 141.28-6.5L141.28-6.5 141.43-10.6ZM167.43 0L167.68-15.55Q167.73-17.6 166.73-18.75 165.73-19.9 163.78-19.9L163.78-19.9Q160.63-19.9 156.98-16.35L156.98-16.35 156.98-10.05 157.18 0 153.23 0 153.48-9.7 153.28-22.65 157.03-23 157.03-19.65 157.33-19.65Q160.43-22.4 163.68-23.2L163.68-23.2Q167.43-23.2 169.41-21.45 171.38-19.7 171.33-16.45L171.33-16.45 171.23-9.95 171.43 0 167.43 0ZM183.98-23L184.13-22.9 183.78-10.05 184.03-0.95Q184.03 2.95 182.45 5.33 180.88 7.7 177.08 9.7L177.08 9.7 175.58 7.9 175.58 7.45Q178.23 5.9 179.25 4.1 180.28 2.3 180.28-0.75L180.28-0.75 180.38-9.7 180.18-20.2 175.58-20.2 175.28-20.55 175.53-22.85 180.23-22.85 183.98-23ZM181.43-33.15Q182.43-33.15 183.03-32.55 183.63-31.95 183.63-30.9L183.63-30.9Q183.63-29.8 183-29.15 182.38-28.5 181.28-28.5L181.28-28.5Q180.23-28.5 179.65-29.1 179.08-29.7 179.08-30.8L179.08-30.8Q179.08-31.85 179.7-32.5 180.33-33.15 181.43-33.15L181.43-33.15ZM199.83-23.3Q203.08-23.3 204.95-21.7 206.83-20.1 206.83-17.3L206.83-17.3Q206.83-16.45 206.53-11.15L206.53-11.15Q206.23-5.85 206.23-4.95L206.23-4.95Q206.23-3.85 206.58-3.43 206.93-3 207.78-3L207.78-3Q208.53-3 209.48-3.3L209.48-3.3 209.88-2.95 209.48-0.7Q208.03 0.15 206.63 0.3L206.63 0.3Q205.08 0.15 204.15-0.8 203.23-1.75 203.18-3.4L203.18-3.4 202.83-3.4Q200.13-0.65 197.48 0.35L197.48 0.35Q194.13 0.35 192.25-1.33 190.38-3 190.38-5.9L190.38-5.9Q190.38-8.1 191.55-9.4 192.73-10.7 195.03-11.25L195.03-11.25 203.13-13.15 203.18-16.4Q203.18-18.35 202.15-19.4 201.13-20.45 199.23-20.45L199.23-20.45Q197.53-20.45 195.83-19.65 194.13-18.85 192.18-17.15L192.18-17.15 191.78-17.35 191.28-20.2Q195.43-23.3 199.83-23.3L199.83-23.3ZM203.08-10.6L195.83-8.85Q194.83-8.55 194.38-8.03 193.93-7.5 193.93-6.45L193.93-6.45Q193.93-4.8 194.85-3.88 195.78-2.95 197.33-2.95L197.33-2.95Q200.08-2.95 202.93-6.5L202.93-6.5 203.08-10.6Z" opacity="1" transform="matrix(1,0,0,1,0,0)" fill="#8dbdff" class="wordmark-text-0" data-fill-palette-color="primary" id="text-0"></path></svg></g></svg></g><g transform="matrix(1,0,0,1,163.310208,104.70443978272358)"><svg viewBox="0 0 232.209792 19.830530943649975" height="19.830530943649975" width="232.209792"><g transform="matrix(1,0,0,1,0,0)"><svg width="232.209792" viewBox="1 -36.01 544.56 46.51" height="19.830530943649975" data-palette-color="#77d4fc"><path d="M14.4 0L9.4 0 1-26 5.86-26 12.01-6.4 17.75-26 22.66-26 28.39-6.4 34.55-26 39.4-26 31.01 0 26 0 20.19-19.09 14.4 0ZM66.89-21.19L66.89-4.81Q66.89-3.81 66.51-2.93 66.14-2.05 65.49-1.4 64.84-0.76 63.97-0.38 63.11 0 62.11 0L62.11 0 49.19 0Q48.22 0 47.34-0.38 46.46-0.76 45.81-1.4 45.16-2.05 44.79-2.93 44.41-3.81 44.41-4.81L44.41-4.81 44.41-21.19Q44.41-22.19 44.79-23.07 45.16-23.95 45.81-24.6 46.46-25.24 47.34-25.62 48.22-26 49.19-26L49.19-26 62.11-26Q63.11-26 63.97-25.62 64.84-25.24 65.49-24.6 66.14-23.95 66.51-23.07 66.89-22.19 66.89-21.19L66.89-21.19ZM62.11-21.19L49.19-21.19 49.19-4.81 62.11-4.81 62.11-21.19ZM89.59-21.19L79.68-21.19 79.68 0 74.9 0 74.9-26 79.68-26 79.68-21.41Q79.73-22.36 80.12-23.21 80.51-24.05 81.16-24.67 81.81-25.29 82.66-25.65 83.52-26 84.49-26L84.49-26 89.59-26Q90.6-26 91.46-25.62 92.33-25.24 92.99-24.6 93.65-23.95 94.03-23.07 94.4-22.19 94.4-21.19L94.4-21.19 94.4-16.8 89.59-16.8 89.59-21.19ZM100.38-36.01L105.17-36.01 105.17 0 100.38 0 100.38-36.01ZM113.17-4.81L113.17-21.19Q113.17-22.19 113.55-23.07 113.93-23.95 114.58-24.6 115.22-25.24 116.1-25.62 116.98-26 117.96-26L117.96-26 131.36-26 131.36-36.01 136.17-36.01 136.17 0 131.36 0 131.36-4.39Q131.29-3.49 130.87-2.69 130.46-1.88 129.81-1.28 129.16-0.68 128.33-0.34 127.5 0 126.58 0L126.58 0 117.96 0Q116.98 0 116.1-0.38 115.22-0.76 114.58-1.4 113.93-2.05 113.55-2.93 113.17-3.81 113.17-4.81L113.17-4.81ZM117.96-21.19L117.96-4.81 131.36-4.81 131.36-21.19 117.96-21.19ZM176.35-21.19L163.95-21.19 163.95-4.81 176.35-4.81 176.35-9.2 181.16-9.2 181.16-4.81Q181.16-3.81 180.78-2.93 180.4-2.05 179.76-1.4 179.11-0.76 178.23-0.38 177.35 0 176.35 0L176.35 0 163.95 0Q162.97 0 162.09-0.38 161.22-0.76 160.57-1.4 159.92-2.05 159.54-2.93 159.16-3.81 159.16-4.81L159.16-4.81 159.16-21.19Q159.16-22.19 159.54-23.07 159.92-23.95 160.57-24.6 161.22-25.24 162.09-25.62 162.97-26 163.95-26L163.95-26 176.35-26Q177.35-26 178.23-25.62 179.11-25.24 179.76-24.6 180.4-23.95 180.78-23.07 181.16-22.19 181.16-21.19L181.16-21.19 181.16-16.8 176.35-16.8 176.35-21.19ZM189.17-36.01L193.95-36.01 193.95 0 189.17 0 189.17-36.01ZM201.96-4.81L201.96-11.35Q201.96-12.35 202.34-13.22 202.71-14.09 203.36-14.75 204.01-15.41 204.89-15.78 205.77-16.16 206.74-16.16L206.74-16.16 219.15-16.16 219.15-21.19 203.45-21.19 203.45-26 219.15-26Q220.15-26 221.02-25.62 221.9-25.24 222.55-24.6 223.2-23.95 223.58-23.07 223.95-22.19 223.95-21.19L223.95-21.19 223.95 0 219.15 0 219.15-4.39Q219.07-3.49 218.66-2.69 218.24-1.88 217.59-1.28 216.95-0.68 216.12-0.34 215.29 0 214.36 0L214.36 0 206.74 0Q205.77 0 204.89-0.38 204.01-0.76 203.36-1.4 202.71-2.05 202.34-2.93 201.96-3.81 201.96-4.81L201.96-4.81ZM206.74-11.35L206.74-4.81 219.15-4.81 219.15-11.35 206.74-11.35ZM231.45-4.81L247.66-4.81 247.66-10.84 236.26-10.84Q235.26-10.84 234.38-11.22 233.5-11.6 232.85-12.24 232.2-12.89 231.83-13.77 231.45-14.65 231.45-15.65L231.45-15.65 231.45-21.19Q231.45-22.19 231.83-23.07 232.2-23.95 232.85-24.6 233.5-25.24 234.38-25.62 235.26-26 236.26-26L236.26-26 251.47-26 251.47-21.19 236.26-21.19 236.26-15.65 247.66-15.65Q248.66-15.65 249.53-15.27 250.39-14.89 251.05-14.25 251.71-13.6 252.09-12.72 252.47-11.84 252.47-10.84L252.47-10.84 252.47-4.81Q252.47-3.81 252.09-2.93 251.71-2.05 251.05-1.4 250.39-0.76 249.53-0.38 248.66 0 247.66 0L247.66 0 231.45 0 231.45-4.81ZM259.45-4.81L275.66-4.81 275.66-10.84 264.26-10.84Q263.26-10.84 262.38-11.22 261.5-11.6 260.85-12.24 260.2-12.89 259.83-13.77 259.45-14.65 259.45-15.65L259.45-15.65 259.45-21.19Q259.45-22.19 259.83-23.07 260.2-23.95 260.85-24.6 261.5-25.24 262.38-25.62 263.26-26 264.26-26L264.26-26 279.47-26 279.47-21.19 264.26-21.19 264.26-15.65 275.66-15.65Q276.66-15.65 277.53-15.27 278.39-14.89 279.05-14.25 279.71-13.6 280.09-12.72 280.47-11.84 280.47-10.84L280.47-10.84 280.47-4.81Q280.47-3.81 280.09-2.93 279.71-2.05 279.05-1.4 278.39-0.76 277.53-0.38 276.66 0 275.66 0L275.66 0 259.45 0 259.45-4.81ZM302.95-4.81L302.95-21.19Q302.95-22.19 303.33-23.07 303.71-23.95 304.35-24.6 305-25.24 305.88-25.62 306.76-26 307.73-26L307.73-26 321.14-26 321.14-36.01 325.95-36.01 325.95 0 321.14 0 321.14-4.39Q321.06-3.49 320.65-2.69 320.23-1.88 319.59-1.28 318.94-0.68 318.11-0.34 317.28 0 316.35 0L316.35 0 307.73 0Q306.76 0 305.88-0.38 305-0.76 304.35-1.4 303.71-2.05 303.33-2.93 302.95-3.81 302.95-4.81L302.95-4.81ZM307.73-21.19L307.73-4.81 321.14-4.81 321.14-21.19 307.73-21.19ZM355.95-21.19L355.95-10.55 338.74-10.55 338.74-4.81 355.95-4.81 355.95 0 338.74 0Q337.76 0 336.88-0.38 336-0.76 335.36-1.4 334.71-2.05 334.33-2.93 333.95-3.81 333.95-4.81L333.95-4.81 333.95-21.19Q333.95-22.19 334.33-23.07 334.71-23.95 335.36-24.6 336-25.24 336.88-25.62 337.76-26 338.74-26L338.74-26 351.14-26Q352.14-26 353.02-25.62 353.9-25.24 354.55-24.6 355.19-23.95 355.57-23.07 355.95-22.19 355.95-21.19L355.95-21.19ZM351.14-21.19L338.74-21.19 338.74-15.36 351.14-15.36 351.14-21.19ZM376.36 0L371.35 0 360.95-26 365.96-26 373.84-5.76 381.75-26 386.76-26 376.36 0ZM413.76-21.19L413.76-10.55 396.54-10.55 396.54-4.81 413.76-4.81 413.76 0 396.54 0Q395.57 0 394.69-0.38 393.81-0.76 393.16-1.4 392.52-2.05 392.14-2.93 391.76-3.81 391.76-4.81L391.76-4.81 391.76-21.19Q391.76-22.19 392.14-23.07 392.52-23.95 393.16-24.6 393.81-25.24 394.69-25.62 395.57-26 396.54-26L396.54-26 408.95-26Q409.95-26 410.83-25.62 411.71-25.24 412.35-24.6 413-23.95 413.38-23.07 413.76-22.19 413.76-21.19L413.76-21.19ZM408.95-21.19L396.54-21.19 396.54-15.36 408.95-15.36 408.95-21.19ZM421.76-36.01L426.55-36.01 426.55 0 421.76 0 421.76-36.01ZM457.04-21.19L457.04-4.81Q457.04-3.81 456.66-2.93 456.28-2.05 455.63-1.4 454.99-0.76 454.12-0.38 453.25 0 452.25 0L452.25 0 439.34 0Q438.36 0 437.48-0.38 436.6-0.76 435.96-1.4 435.31-2.05 434.93-2.93 434.55-3.81 434.55-4.81L434.55-4.81 434.55-21.19Q434.55-22.19 434.93-23.07 435.31-23.95 435.96-24.6 436.6-25.24 437.48-25.62 438.36-26 439.34-26L439.34-26 452.25-26Q453.25-26 454.12-25.62 454.99-25.24 455.63-24.6 456.28-23.95 456.66-23.07 457.04-22.19 457.04-21.19L457.04-21.19ZM452.25-21.19L439.34-21.19 439.34-4.81 452.25-4.81 452.25-21.19ZM488.04-21.19L488.04-4.81Q488.04-3.81 487.66-2.93 487.28-2.05 486.64-1.4 485.99-0.76 485.11-0.38 484.23 0 483.23 0L483.23 0 469.83 0 469.83 10.5 465.04 10.5 465.04-26 469.83-26 469.83-21.61Q469.9-22.53 470.32-23.33 470.73-24.12 471.37-24.72 472-25.32 472.84-25.66 473.69-26 474.64-26L474.64-26 483.23-26Q484.23-26 485.11-25.62 485.99-25.24 486.64-24.6 487.28-23.95 487.66-23.07 488.04-22.19 488.04-21.19L488.04-21.19ZM469.83-4.81L483.23-4.81 483.23-21.19 469.83-21.19 469.83-4.81ZM518.04-21.19L518.04-10.55 500.83-10.55 500.83-4.81 518.04-4.81 518.04 0 500.83 0Q499.85 0 498.98-0.38 498.1-0.76 497.45-1.4 496.8-2.05 496.42-2.93 496.05-3.81 496.05-4.81L496.05-4.81 496.05-21.19Q496.05-22.19 496.42-23.07 496.8-23.95 497.45-24.6 498.1-25.24 498.98-25.62 499.85-26 500.83-26L500.83-26 513.23-26Q514.23-26 515.11-25.62 515.99-25.24 516.64-24.6 517.29-23.95 517.66-23.07 518.04-22.19 518.04-21.19L518.04-21.19ZM513.23-21.19L500.83-21.19 500.83-15.36 513.23-15.36 513.23-21.19ZM540.75-21.19L530.83-21.19 530.83 0 526.05 0 526.05-26 530.83-26 530.83-21.41Q530.88-22.36 531.27-23.21 531.66-24.05 532.31-24.67 532.96-25.29 533.81-25.65 534.67-26 535.64-26L535.64-26 540.75-26Q541.75-26 542.61-25.62 543.48-25.24 544.14-24.6 544.8-23.95 545.18-23.07 545.56-22.19 545.56-21.19L545.56-21.19 545.56-16.8 540.75-16.8 540.75-21.19Z" opacity="1" transform="matrix(1,0,0,1,0,0)" fill="#77d4fc" class="slogan-text-1" data-fill-palette-color="secondary" id="text-1"></path></svg></g></svg></g></svg></g></svg></g><g transform="matrix(1,0,0,1,415.51731838992606,0)"><svg viewBox="0 0 172.10732954384827 172.10732954384827" height="172.10732954384827" width="172.10732954384827"><g data-palette-color="#8dbdff"><rect width="47.04267007531853" height="172.10732954384827" fill="#8dbdff" stroke="transparent" data-fill-palette-color="accent" x="0" fill-opacity="1"></rect><rect width="47.04267007531853" height="172.10732954384827" fill="#8dbdff" stroke="transparent" data-fill-palette-color="accent" x="57.36910984794943" fill-opacity="0.75"></rect><rect width="47.04267007531853" height="172.10732954384827" fill="#8dbdff" stroke="transparent" data-fill-palette-color="accent" x="114.73821969589886" fill-opacity="0.5"></rect></g></svg></g></svg></g><defs></defs></svg><rect width="395.52" height="115.84247056439777" fill="none" stroke="none" visibility="hidden"></rect></g></svg></g></svg>