<svg width="41" height="87" viewBox="0 0 41 87" fill="none" xmlns="http://www.w3.org/2000/svg">
<path d="M12.5324 49.7151L20.1346 34.4608C20.8588 33.0075 22.9216 32.9775 23.6879 34.4091L27.876 42.2333C28.5688 43.5276 27.6311 45.0931 26.163 45.0931C25.4382 45.0931 24.7737 44.6896 24.4393 44.0466L23.6912 42.6081C22.9337 41.1514 20.8406 41.1776 20.1198 42.6529L15.8657 51.3599C15.5539 51.9979 14.9059 52.4025 14.1958 52.4025C12.8153 52.4025 11.9167 50.9506 12.5324 49.7151Z" fill="black"/>
<path d="M29.8982 54.4751L28.5511 51.876C27.8736 50.569 28.8222 49.0089 30.2944 49.0089C31.0279 49.0089 31.7002 49.4177 32.0378 50.0689L33.3849 52.668C34.0623 53.975 33.1137 55.5351 31.6415 55.5351C30.908 55.5351 30.2357 55.1263 29.8982 54.4751Z" fill="black"/>
<mask id="path-2-inside-1_406_136" fill="white">
<path fill-rule="evenodd" clip-rule="evenodd" d="M28.5591 0V15.1017V15.3088L28.7055 15.4552L36.0506 22.8003C35.8474 23.1739 35.7319 23.6021 35.7319 24.0573C35.7319 25.5121 36.9112 26.6913 38.3659 26.6913C39.8207 26.6913 40.9999 25.5121 40.9999 24.0573C40.9999 22.6026 39.8207 21.4233 38.3659 21.4233C37.7292 21.4233 37.1452 21.6492 36.6898 22.0253L29.5591 14.8946V0H28.5591ZM39.9999 24.0573C39.9999 24.9598 39.2684 25.6913 38.3659 25.6913C37.4635 25.6913 36.7319 24.9598 36.7319 24.0573C36.7319 23.1549 37.4635 22.4233 38.3659 22.4233C39.2684 22.4233 39.9999 23.1549 39.9999 24.0573Z"/>
</mask>
<path d="M28.5591 0V-20H8.55908V0H28.5591ZM28.5591 15.3088H8.55908V23.593L14.4169 29.4509L28.5591 15.3088ZM28.7055 15.4552L14.5634 29.5973L14.5634 29.5974L28.7055 15.4552ZM36.0506 22.8003L53.6188 32.3585L60.7626 19.228L50.1928 8.65819L36.0506 22.8003ZM36.6898 22.0253L22.5477 36.1674L35.4046 49.0244L49.4247 37.4468L36.6898 22.0253ZM29.5591 14.8946H9.55908V23.1788L15.4169 29.0367L29.5591 14.8946ZM29.5591 0H49.5591V-20H29.5591V0ZM48.5591 15.1017V0H8.55908V15.1017H48.5591ZM48.5591 15.3088V15.1017H8.55908V15.3088H48.5591ZM42.8477 1.31312L42.7012 1.16667L14.4169 29.4509L14.5634 29.5973L42.8477 1.31312ZM50.1928 8.65819L42.8477 1.31309L14.5634 29.5974L21.9085 36.9425L50.1928 8.65819ZM18.4824 13.2422C16.7233 16.4754 15.7319 20.1804 15.7319 24.0573H55.7319C55.7319 27.0238 54.9714 29.8724 53.6188 32.3585L18.4824 13.2422ZM15.7319 24.0573C15.7319 36.5577 25.8655 46.6913 38.3659 46.6913V6.69134C47.9569 6.69134 55.7319 14.4664 55.7319 24.0573H15.7319ZM38.3659 46.6913C50.8664 46.6913 60.9999 36.5577 60.9999 24.0573H20.9999C20.9999 14.4664 28.7749 6.69134 38.3659 6.69134V46.6913ZM60.9999 24.0573C60.9999 11.5569 50.8663 1.42332 38.3659 1.42332V41.4233C28.775 41.4233 20.9999 33.6483 20.9999 24.0573H60.9999ZM38.3659 1.42332C32.9122 1.42332 27.8619 3.37753 23.9549 6.60381L49.4247 37.4468C46.4286 39.921 42.5462 41.4233 38.3659 41.4233V1.42332ZM15.4169 29.0367L22.5477 36.1674L50.832 7.88317L43.7012 0.75243L15.4169 29.0367ZM9.55908 0V14.8946H49.5591V0H9.55908ZM28.5591 20H29.5591V-20H28.5591V20ZM38.3659 45.6913C50.3141 45.6913 59.9999 36.0054 59.9999 24.0573H19.9999C19.9999 13.9141 28.2227 5.69134 38.3659 5.69134V45.6913ZM16.7319 24.0573C16.7319 36.0054 26.4178 45.6913 38.3659 45.6913V5.69134C48.5092 5.69134 56.7319 13.9141 56.7319 24.0573H16.7319ZM38.3659 2.42332C26.4178 2.42332 16.7319 12.1092 16.7319 24.0573H56.7319C56.7319 34.2006 48.5092 42.4233 38.3659 42.4233V2.42332ZM59.9999 24.0573C59.9999 12.1092 50.3141 2.42332 38.3659 2.42332V42.4233C28.2227 42.4233 19.9999 34.2006 19.9999 24.0573H59.9999Z" fill="black" mask="url(#path-2-inside-1_406_136)"/>
<mask id="path-4-inside-2_406_136" fill="white">
<path fill-rule="evenodd" clip-rule="evenodd" d="M12.4414 86.5316V71.4299V71.2228L12.295 71.0764L4.94953 63.7313C5.15279 63.3577 5.26827 62.9295 5.26827 62.4743C5.26827 61.0196 4.08893 59.8403 2.63414 59.8403C1.17934 59.8403 -9.53674e-07 61.0196 -9.53674e-07 62.4743C-9.53674e-07 63.929 1.17934 65.1083 2.63414 65.1083C3.2709 65.1083 3.85489 64.8824 4.31032 64.5063L11.4414 71.6371V86.5316H12.4414ZM0.999999 62.4743C0.999999 61.5719 1.73158 60.8403 2.63414 60.8403C3.53669 60.8403 4.26827 61.5719 4.26827 62.4743C4.26827 63.3767 3.53669 64.1083 2.63414 64.1083C1.73158 64.1083 0.999999 63.3767 0.999999 62.4743Z"/>
</mask>
<path d="M12.4414 86.5316V88.5316H14.4414V86.5316H12.4414ZM12.4414 71.2228H14.4414V70.3944L13.8556 69.8086L12.4414 71.2228ZM12.295 71.0764L13.7091 69.6621L13.7091 69.6621L12.295 71.0764ZM4.94953 63.7313L3.19274 62.7754L2.47828 64.0885L3.53535 65.1456L4.94953 63.7313ZM4.31032 64.5063L5.7245 63.0921L4.43883 61.8065L3.03686 62.9641L4.31032 64.5063ZM11.4414 71.6371H13.4414V70.8086L12.8556 70.2228L11.4414 71.6371ZM11.4414 86.5316H9.44141V88.5316H11.4414V86.5316ZM10.4414 71.4299V86.5316H14.4414V71.4299H10.4414ZM10.4414 71.2228V71.4299H14.4414V71.2228H10.4414ZM10.8808 72.4906L11.0272 72.6371L13.8556 69.8086L13.7091 69.6621L10.8808 72.4906ZM3.53535 65.1456L10.8808 72.4906L13.7091 69.6621L6.36371 62.3171L3.53535 65.1456ZM6.70632 64.6872C7.06519 64.0276 7.26827 63.2717 7.26827 62.4743H3.26827C3.26827 62.5873 3.2404 62.6879 3.19274 62.7754L6.70632 64.6872ZM7.26827 62.4743C7.26827 59.9149 5.19341 57.8403 2.63414 57.8403V61.8403C2.98445 61.8403 3.26827 62.1242 3.26827 62.4743H7.26827ZM2.63414 57.8403C0.0748606 57.8403 -2 59.9149 -2 62.4743H2C2 62.1242 2.28382 61.8403 2.63414 61.8403V57.8403ZM-2 62.4743C-2 65.0337 0.0748615 67.1083 2.63414 67.1083V63.1083C2.28382 63.1083 2 62.8244 2 62.4743H-2ZM2.63414 67.1083C3.75257 67.1083 4.78319 66.7096 5.58377 66.0485L3.03686 62.9641C2.92659 63.0552 2.78923 63.1083 2.63414 63.1083V67.1083ZM12.8556 70.2228L5.7245 63.0921L2.89614 65.9206L10.0272 73.0513L12.8556 70.2228ZM13.4414 86.5316V71.6371H9.44141V86.5316H13.4414ZM12.4414 84.5316H11.4414V88.5316H12.4414V84.5316ZM2.63414 58.8403C0.627086 58.8403 -1 60.4673 -1 62.4743H3C3 62.6765 2.83608 62.8403 2.63414 62.8403V58.8403ZM6.26827 62.4743C6.26827 60.4673 4.64119 58.8403 2.63414 58.8403V62.8403C2.43219 62.8403 2.26827 62.6765 2.26827 62.4743H6.26827ZM2.63414 66.1083C4.64119 66.1083 6.26827 64.4813 6.26827 62.4743H2.26827C2.26827 62.272 2.43219 62.1083 2.63414 62.1083V66.1083ZM-1 62.4743C-1 64.4813 0.627086 66.1083 2.63414 66.1083V62.1083C2.83608 62.1083 3 62.272 3 62.4743H-1Z" fill="black" mask="url(#path-4-inside-2_406_136)"/>
</svg>
