<svg width="62" height="24" viewBox="0 0 62 24" fill="none" xmlns="http://www.w3.org/2000/svg">
<path d="M1.56 16.52L1.824 5.312C1.824 4.176 1.784 3.552 1.704 3.44C1.624 3.312 1.48 3.008 1.272 2.528C1.064 2.032 0.96 1.712 0.96 1.568C0.96 1.504 1.12 1.416 1.44 1.304C2.304 0.983999 3.064 0.823999 3.72 0.823999C4.392 0.823999 4.744 0.848 4.776 0.896C4.808 0.927999 4.824 1.24 4.824 1.832C4.824 2.408 4.784 3.896 4.704 6.296C4.704 6.392 4.72 6.44 4.752 6.44C4.784 6.44 4.824 6.408 4.872 6.344C5.768 5.16 6.848 3.88 8.112 2.504C9.376 1.112 10.136 0.415999 10.392 0.415999C10.664 0.415999 11.008 0.503999 11.424 0.68C11.84 0.855999 12.184 1.048 12.456 1.256C12.744 1.448 12.888 1.576 12.888 1.64V1.664C12.264 2.064 11.568 2.616 10.8 3.32C10.032 4.024 9.408 4.64 8.928 5.168C8.448 5.696 8.208 6 8.208 6.08C8.208 6.672 8.856 8.4 10.152 11.264C11.464 14.112 12.536 15.96 13.368 16.808C13.384 16.824 13.344 16.88 13.248 16.976C13.168 17.056 13.032 17.152 12.84 17.264C12.648 17.392 12.432 17.512 12.192 17.624C11.632 17.912 11.04 18.056 10.416 18.056C9.84 17.48 9.2 16.408 8.496 14.84C7.792 13.256 7.208 11.824 6.744 10.544C6.296 9.264 6.056 8.624 6.024 8.624C5.944 8.624 5.688 8.96 5.256 9.632C4.84 10.288 4.632 10.68 4.632 10.808V12.368C4.632 15.12 4.68 16.728 4.776 17.192C4.792 17.24 4.704 17.312 4.512 17.408C3.968 17.68 3.28 17.816 2.448 17.816L1.632 17.696C1.584 17.648 1.56 17.256 1.56 16.52ZM14.8406 13.592L14.9366 4.904C14.9366 3.64 14.9206 2.784 14.8886 2.336C14.8566 1.888 14.8406 1.648 14.8406 1.616C14.8406 1.456 15.1046 1.272 15.6326 1.064C16.1766 0.855999 16.6566 0.751999 17.0726 0.751999C17.4886 0.751999 17.6966 0.783999 17.6966 0.847999C17.6166 1.44 17.5766 3.52 17.5766 7.088L17.5286 12.968C17.5286 14.072 17.5446 14.752 17.5766 15.008C17.6566 15.712 17.8886 16.352 18.2726 16.928C18.2726 17.088 17.9446 17.344 17.2886 17.696C16.6326 18.048 16.0726 18.224 15.6086 18.224C15.4806 18.224 15.3366 17.984 15.1766 17.504C15.0166 17.024 14.9206 16.608 14.8886 16.256C14.8566 15.904 14.8406 15.016 14.8406 13.592ZM21.4665 2.672C21.9145 2.672 22.2745 2.816 22.5465 3.104C22.8185 3.392 22.9545 3.768 22.9545 4.232C22.9545 4.696 22.7705 5.096 22.4025 5.432C22.0505 5.752 21.6505 5.912 21.2025 5.912C20.7705 5.912 20.4185 5.776 20.1465 5.504C19.8905 5.216 19.7625 4.84 19.7625 4.376C19.7625 3.912 19.9385 3.512 20.2905 3.176C20.6425 2.84 21.0345 2.672 21.4665 2.672ZM22.6905 8.648L22.6425 12.536C22.6425 13.784 22.6745 14.704 22.7385 15.296C22.8185 15.872 23.0265 16.416 23.3625 16.928C23.3625 17.088 23.0345 17.344 22.3785 17.696C21.7225 18.048 21.1625 18.224 20.6985 18.224C20.5545 18.224 20.4105 17.984 20.2665 17.504C20.1225 17.024 20.0265 16.568 19.9785 16.136C19.9465 15.704 19.9305 14.248 19.9305 11.768C19.9305 9.288 19.9865 7.936 20.0985 7.712C20.4665 7.424 21.1145 7.28 22.0425 7.28C22.4105 7.28 22.6345 7.328 22.7145 7.424L22.6905 8.648ZM25.2039 14.024L25.1319 8.384C25.1319 7.36 25.1719 6.808 25.2519 6.728C25.4439 6.552 25.7399 6.392 26.1399 6.248C26.5399 6.088 26.9239 6.008 27.2919 6.008C27.6599 6.008 27.8439 6.04 27.8439 6.104C27.7799 6.808 27.7479 7.344 27.7479 7.712C27.7479 8.08 27.7639 8.264 27.7959 8.264C27.8279 8.264 27.8759 8.232 27.9399 8.168C28.0039 8.088 28.1159 7.976 28.2759 7.832C28.4519 7.672 28.7639 7.464 29.2119 7.208C29.6759 6.936 30.0999 6.8 30.4839 6.8C31.5239 6.8 32.3079 7.264 32.8359 8.192C33.7479 6.912 34.7559 6.272 35.8599 6.272C36.8519 6.272 37.5639 6.696 37.9959 7.544C38.4439 8.488 38.7079 9.432 38.7879 10.376C38.8839 11.752 38.9319 13.176 38.9319 14.648L38.8359 17.456C38.8359 17.568 38.5719 17.672 38.0439 17.768C37.5159 17.88 37.0919 17.936 36.7719 17.936L36.0039 17.816C36.1799 16.232 36.2679 14.952 36.2679 13.976C36.2679 13 36.2519 12.304 36.2199 11.888C36.2039 11.456 36.1479 11.032 36.0519 10.616C35.9559 10.184 35.8039 9.88 35.5959 9.704C35.4039 9.512 35.1559 9.416 34.8519 9.416C34.5479 9.416 34.2759 9.504 34.0359 9.68C33.7959 9.84 33.6199 10 33.5079 10.16C33.4119 10.32 33.3639 10.424 33.3639 10.472C33.4119 10.984 33.4359 12.168 33.4359 14.024L33.3399 15.92C33.3399 16.048 33.0839 16.16 32.5719 16.256C32.0599 16.352 31.6439 16.4 31.3239 16.4L30.5559 16.28C30.6999 14.984 30.7719 13.776 30.7719 12.656C30.7719 11.52 30.7079 10.728 30.5799 10.28C30.4679 9.816 30.1559 9.584 29.6439 9.584C29.1319 9.584 28.6999 9.84 28.3479 10.352C27.9959 10.864 27.8199 11.256 27.8199 11.528V12.032L27.8439 14.576C27.8439 16.144 27.8119 16.968 27.7479 17.048C27.3479 17.432 26.5079 17.624 25.2279 17.624C25.0999 17.624 25.0359 17.6 25.0359 17.552C25.1479 16.864 25.2039 15.688 25.2039 14.024ZM46.9946 16.088L46.9706 15.584L46.9466 15.536C46.5626 16.128 46.0746 16.6 45.4826 16.952C44.9066 17.304 44.3386 17.48 43.7786 17.48C42.0986 17.48 41.1386 16.176 40.8986 13.568C40.8666 13.152 40.8506 12.08 40.8506 10.352C40.8506 8.624 40.9226 7.6 41.0666 7.28C41.4826 6.944 42.1546 6.776 43.0826 6.776C43.4506 6.776 43.6746 6.816 43.7546 6.896C43.7546 6.912 43.7466 7.128 43.7306 7.544C43.6506 8.76 43.6106 9.696 43.6106 10.352C43.6106 11.008 43.6186 11.496 43.6346 11.816C43.6506 12.12 43.6586 12.32 43.6586 12.416C43.6746 12.496 43.6986 12.648 43.7306 12.872C43.7786 13.096 43.8426 13.288 43.9226 13.448C44.1626 13.912 44.5306 14.144 45.0266 14.144C45.5386 14.144 45.9866 13.896 46.3706 13.4C46.7706 12.888 46.9626 12.528 46.9466 12.32V11.504C46.9466 8.576 46.9946 7 47.0906 6.776C47.1706 6.632 47.4186 6.48 47.8346 6.32C48.2666 6.16 48.6906 6.08 49.1066 6.08C49.5226 6.08 49.7626 6.112 49.8266 6.176L49.7786 7.304C49.6826 9.592 49.6346 11.36 49.6346 12.608C49.6346 13.856 49.6666 14.648 49.7306 14.984C49.8426 15.784 50.0586 16.424 50.3786 16.904C50.3786 17.064 50.0506 17.32 49.3946 17.672C48.7386 18.024 48.1786 18.2 47.7146 18.2C47.5866 18.2 47.4426 17.96 47.2826 17.48C47.1226 17 47.0266 16.536 46.9946 16.088ZM54.7714 5.36L54.7474 6.488C59.0034 6.488 61.1314 8.136 61.1314 11.432C61.1314 12.328 60.9474 13.144 60.5794 13.88C60.2274 14.6 59.7874 15.176 59.2594 15.608C58.7314 16.024 58.1554 16.376 57.5314 16.664C56.4594 17.16 55.4994 17.408 54.6514 17.408V17.768C54.6514 20.168 54.7154 21.768 54.8434 22.568C54.6354 22.776 54.2754 22.936 53.7634 23.048C53.2514 23.176 52.8354 23.24 52.5154 23.24C52.1954 23.24 52.0354 23.216 52.0354 23.168C51.9714 22.656 51.9394 21.6 51.9394 20L52.0594 8.84C52.0594 7.528 52.0354 6.616 51.9874 6.104C52.1794 5.912 52.4994 5.728 52.9474 5.552C53.4114 5.376 53.8114 5.288 54.1474 5.288C54.4834 5.288 54.6914 5.312 54.7714 5.36ZM54.6514 13.544L54.6754 14.744C55.6514 14.744 56.5074 14.464 57.2434 13.904C57.9794 13.344 58.3474 12.536 58.3474 11.48C58.3474 9.752 57.1394 8.888 54.7234 8.888L54.6994 9.2C54.6994 9.408 54.6994 9.68 54.6994 10.016L54.6514 13.544Z" fill="black"/>
</svg>
